<svg xmlns="http://www.w3.org/2000/svg" viewBox="0 0 425.58 254.02"><defs><style>.cls-1{fill:#fff;}</style></defs><g id="圖層_2" data-name="圖層 2"><g id="圖層_3" data-name="圖層 3"><path class="cls-1" d="M127.07,251.52h0a9,9,0,0,1-8.8-7.18c-2.83-13.74-11.78-40-39.82-61.57C53.23,163.41,25,157.72,10.48,156.05a9,9,0,1,1,2-17.89c16.41,1.89,48.23,8.33,76.87,30.34a126.45,126.45,0,0,1,36.76,44.28c9.11-25.52,25.21-55.8,53.65-84.76C216.2,91,258.25,71.1,287.12,61a9,9,0,0,1,6,17C266,87.46,226.62,106,192.65,140.63,155.92,178,141.5,217.7,135.87,244.38A9,9,0,0,1,127.07,251.52Z"/><path class="cls-1" d="M127.07,254h0a11.54,11.54,0,0,1-11.24-9.18c-2.77-13.4-11.5-39-38.91-60.09-24.71-19-52.4-24.58-66.71-26.22a11.5,11.5,0,0,1,2.62-22.85c16.67,1.91,49,8.46,78.11,30.84a129.47,129.47,0,0,1,34.85,40.12C137.2,177,154.76,150,178,126.27c36.73-37.41,79.15-57.44,108.27-67.65a11.51,11.51,0,0,1,14.66,7,11.51,11.51,0,0,1-7,14.66c-26.82,9.41-65.85,27.81-99.48,62.06-36.3,37-50.55,76.16-56.11,102.51A11.56,11.56,0,0,1,127.07,254ZM11.5,140.61a6.5,6.5,0,0,0-5.09,10.54,6.43,6.43,0,0,0,4.35,2.41c14.82,1.7,43.52,7.5,69.19,27.23,28.69,22.05,37.85,49,40.75,63a6.53,6.53,0,0,0,6.35,5.19l0,2.5V249a6.53,6.53,0,0,0,6.36-5.16c5.69-27,20.28-67.14,57.43-105,34.31-34.94,74.07-53.7,101.39-63.28A6.5,6.5,0,0,0,288,63.34c-28.62,10-70.31,29.71-106.36,66.43-24.13,24.58-42,52.79-53.07,83.85l-2,5.54-2.62-5.27a124,124,0,0,0-36-43.41c-28.16-21.64-59.47-28-75.63-29.83A6.23,6.23,0,0,0,11.5,140.61Z"/><circle class="cls-1" cx="394.09" cy="31.48" r="31.48"/></g></g></svg>