<svg xmlns="http://www.w3.org/2000/svg" viewBox="0 0 349.21 296.79"><defs><style>.cls-1{fill:#fff;}</style></defs><g id="圖層_2" data-name="圖層 2"><g id="Capa_1" data-name="Capa 1"><path class="cls-1" d="M347.82,182.22a365.71,365.71,0,0,0-51.49-52.91c-18.3-15.4-36.77-27.69-54.89-36.53C218.48,81.58,196,75.9,174.6,75.9s-43.88,5.68-66.83,16.88c-18.12,8.84-36.59,21.13-54.9,36.53A366,366,0,0,0,1.39,182.22a6.81,6.81,0,0,0,0,8.24,364.79,364.79,0,0,0,51.48,52.91c18.31,15.41,36.78,27.7,54.9,36.54,23,11.2,45.44,16.88,66.83,16.88s43.88-5.68,66.84-16.88c18.12-8.84,36.59-21.13,54.89-36.54a364.56,364.56,0,0,0,51.49-52.91,6.81,6.81,0,0,0,0-8.24ZM174.6,283.15c-53.25,0-96.58-43.43-96.58-96.81s43.32-96.8,96.58-96.8,96.59,43.43,96.59,96.8-43.33,96.81-96.59,96.81Zm-159-96.81a370.8,370.8,0,0,1,46.32-46.77c6.9-5.8,14.73-11.87,23.3-17.72a110.43,110.43,0,0,0,0,129c-8.57-5.85-16.4-11.93-23.3-17.72A370,370,0,0,1,15.55,186.34Zm271.78,46.78c-6.9,5.79-14.73,11.87-23.29,17.71a110.42,110.42,0,0,0,0-129c8.56,5.84,16.39,11.92,23.29,17.72a371.09,371.09,0,0,1,46.33,46.77,370.29,370.29,0,0,1-46.33,46.78Z"/><circle class="cls-1" cx="174.6" cy="186.34" r="48.9"/><rect class="cls-1" x="166.28" width="16.65" height="48.59" rx="8.33"/><rect class="cls-1" x="287.49" y="18.65" width="16.65" height="48.59" rx="8.33" transform="translate(61.1 -142.15) rotate(30)"/><rect class="cls-1" x="45.07" y="18.65" width="16.65" height="48.59" rx="8.33" transform="translate(121.11 53.44) rotate(150)"/></g></g></svg>