<svg xmlns="http://www.w3.org/2000/svg" viewBox="0 0 391.92 392.07"><defs><style>.cls-1{fill:#fff;}</style></defs><g id="圖層_2" data-name="圖層 2"><g id="light"><path class="cls-1" d="M334.71,81.64a40.82,40.82,0,1,1,40.82-40.82A40.86,40.86,0,0,1,334.71,81.64Zm0-65.31A24.49,24.49,0,1,0,359.2,40.82,24.52,24.52,0,0,0,334.71,16.33Z"/><path class="cls-1" d="M383.69,98a8.21,8.21,0,0,1-5.78-2.38L353.42,71.09A8.16,8.16,0,1,1,365,59.55L389.45,84A8.15,8.15,0,0,1,383.69,98Z"/><path class="cls-1" d="M236.74,98H24.49A24.52,24.52,0,0,1,0,73.47v-49A24.52,24.52,0,0,1,24.49,0H236.74a24.52,24.52,0,0,1,24.5,24.49v49A24.52,24.52,0,0,1,236.74,98ZM24.49,16.33a8.18,8.18,0,0,0-8.16,8.16v49a8.19,8.19,0,0,0,8.16,8.17H236.74a8.2,8.2,0,0,0,8.17-8.17v-49a8.19,8.19,0,0,0-8.17-8.16Z"/><path class="cls-1" d="M89.8,212.25H8.16a8.16,8.16,0,0,1,0-16.32H89.8a8.16,8.16,0,0,1,0,16.32Z"/><path class="cls-1" d="M89.8,261.24H8.16a8.17,8.17,0,0,1,0-16.33H89.8a8.17,8.17,0,0,1,0,16.33Z"/><path class="cls-1" d="M89.8,163.27H8.16a8.17,8.17,0,0,1,0-16.33H89.8a8.17,8.17,0,0,1,0,16.33Z"/><path class="cls-1" d="M367.43,392.07H155.17a24.52,24.52,0,0,1-24.49-24.5V155.32a24.52,24.52,0,0,1,24.49-24.49H367.43a24.52,24.52,0,0,1,24.49,24.49V367.57A24.52,24.52,0,0,1,367.43,392.07ZM155.17,147.16a8.18,8.18,0,0,0-8.16,8.16V367.57a8.19,8.19,0,0,0,8.16,8.17H367.43a8.19,8.19,0,0,0,8.16-8.17V155.32a8.18,8.18,0,0,0-8.16-8.16Z"/><path class="cls-1" d="M84.15,388.28h-70c-4.45,0-8.07-4.18-8.07-9.33V298.11c0-5.14,3.62-9.32,8.07-9.32h70c4.45,0,8.07,4.18,8.07,9.32V379C92.22,384.1,88.6,388.28,84.15,388.28ZM14.19,295a2.92,2.92,0,0,0-2.69,3.1V379a2.93,2.93,0,0,0,2.69,3.11h70A2.93,2.93,0,0,0,86.84,379V298.11a2.92,2.92,0,0,0-2.69-3.1Z"/><path class="cls-1" d="M84.15,391.73h-70C7.84,391.73,2.68,386,2.68,379V298.11c0-7,5.16-12.77,11.51-12.77h70c6.35,0,11.52,5.73,11.52,12.77V379C95.67,386,90.5,391.73,84.15,391.73ZM15,378.62H83.4V298.45H15Z"/><path class="cls-1" d="M305.69,320.17a5,5,0,0,1-5-5c0-16.76-17.68-30.4-39.41-30.4s-39.42,13.64-39.42,30.4a5,5,0,1,1-9.95,0c0-22.25,22.15-40.35,49.37-40.35s49.36,18.1,49.36,40.35A5,5,0,0,1,305.69,320.17Z"/><path class="cls-1" d="M261.3,263.83a30.36,30.36,0,1,1,30.36-30.36A30.4,30.4,0,0,1,261.3,263.83Zm0-51.53a21.17,21.17,0,1,0,21.17,21.17A21.19,21.19,0,0,0,261.3,212.3Z"/></g></g></svg>