<svg xmlns="http://www.w3.org/2000/svg" viewBox="0 0 337.98 323.81"><defs><style>.cls-1{fill:#fff;}</style></defs><g id="圖層_2" data-name="圖層 2"><g id="Capa_1" data-name="Capa 1"><path class="cls-1" d="M68,170.73h52.28a7.79,7.79,0,0,0,7.79-7.79V110.86a7.79,7.79,0,0,0-7.79-7.79H68a7.79,7.79,0,0,0-7.79,7.79v52.08A7.79,7.79,0,0,0,68,170.73Zm7.79-52.08h36.7v36.5H75.78Z"/><path class="cls-1" d="M168.64,118.65h102a7.79,7.79,0,1,0,0-15.58h-102a7.79,7.79,0,1,0,0,15.58Z"/><path class="cls-1" d="M168.64,167.87h102a7.79,7.79,0,1,0,0-15.58h-102a7.79,7.79,0,0,0,0,15.58Z"/><path class="cls-1" d="M68,217.09H270.65a7.79,7.79,0,1,0,0-15.58H68a7.79,7.79,0,1,0,0,15.58Z"/><path class="cls-1" d="M69.44,266.31H269.2c5.11,0,9.24-3.49,9.24-7.8s-4.13-7.79-9.24-7.79H69.44c-5.1,0-9.24,3.49-9.24,7.79s4.14,7.8,9.24,7.8Z"/><path class="cls-1" d="M44.89,33.57c-2.75-6.72-12.76-6.07-14.7.9-1.86,6.74,5.8,12.38,11.69,8.64A7.84,7.84,0,0,0,44.89,33.57Z"/><path class="cls-1" d="M73.44,33.57a7.79,7.79,0,1,0-4.22,10.17A7.86,7.86,0,0,0,73.44,33.57Z"/><path class="cls-1" d="M102,33.57a7.79,7.79,0,1,0-4.21,10.17A7.85,7.85,0,0,0,102,33.57Z"/></g><g id="圖層_2-2" data-name="圖層 2"><path class="cls-1" d="M315.88,323.81H22.1A22.13,22.13,0,0,1,0,301.71V22.1A22.13,22.13,0,0,1,22.1,0H315.88A22.13,22.13,0,0,1,338,22.1V301.71A22.12,22.12,0,0,1,315.88,323.81ZM22.1,12A10.11,10.11,0,0,0,12,22.1V301.71a10.11,10.11,0,0,0,10.1,10.1H315.88a10.11,10.11,0,0,0,10.1-10.1V22.1A10.11,10.11,0,0,0,315.88,12Z"/><rect class="cls-1" x="6" y="56.53" width="325.98" height="12"/></g></g></svg>