<svg xmlns="http://www.w3.org/2000/svg" width="281.159" height="187" viewBox="0 0 281.159 187">
  <g id="new-logo" transform="translate(-32.128 -43.75)">
    <path id="路径_4" data-name="路径 4" d="M111.5,51.441a7.691,7.691,0,1,1-7.691-7.691,7.691,7.691,0,0,1,7.691,7.691" transform="translate(-41.099 0)" fill="#67b741"/>
    <path id="路径_5" data-name="路径 5" d="M96.477,107.91H58.7a3.625,3.625,0,0,0,0,7.237H96.477a3.625,3.625,0,0,0,0-7.237Z" transform="translate(-14.876 -41.207)" fill="#fcfefc"/>
    <path id="路径_6" data-name="路径 6" d="M96.477,218.62H58.7a3.625,3.625,0,0,0,0,7.237H96.477a3.625,3.625,0,0,0,0-7.237Z" transform="translate(-14.876 -112.311)" fill="#fcfefc"/>
    <path id="路径_7" data-name="路径 7" d="M132.787,171.91H35.635a3.62,3.62,0,0,0,0,7.237h97.152a3.62,3.62,0,0,0,0-7.237Z" transform="translate(0 -82.312)" fill="#fcfefc"/>
    <path id="路径_8" data-name="路径 8" d="M250.206,85.48H215.652a3.671,3.671,0,0,0,0,7.237h34.554a3.671,3.671,0,0,0,0-7.237Z" transform="translate(-115.909 -26.801)" fill="#fcfefc"/>
    <path id="路径_9" data-name="路径 9" d="M111.12,175.84a3.493,3.493,0,0,0-3.62,3.341V242.96a3.632,3.632,0,0,0,7.241,0V179.181A3.486,3.486,0,0,0,111.12,175.84Z" transform="translate(-48.408 -84.836)" fill="#fcfefc"/>
    <path id="路径_10" data-name="路径 10" d="M70.29,253.25c-2,0-3.62,1.259-3.62,2.812v22.051c0,1.553,1.624,2.812,3.62,2.812s3.62-1.259,3.62-2.812V256.062C73.911,254.509,72.287,253.25,70.29,253.25Z" transform="translate(-22.185 -134.553)" fill="#fcfefc"/>
    <path id="路径_11" data-name="路径 11" d="M216.21,88.55a3.577,3.577,0,0,0-3.62,3.556v79.483a3.62,3.62,0,1,0,7.241,0V92.105a3.577,3.577,0,0,0-3.62-3.556Z" transform="translate(-115.903 -28.773)" fill="#fcfefc"/>
    <path id="路径_12" data-name="路径 12" d="M309.624,174.629a3.577,3.577,0,0,0-3.624,3.5v132.88a3.624,3.624,0,0,0,7.241,0V178.128A3.577,3.577,0,0,0,309.624,174.629Z" transform="translate(-175.896 -84.058)" fill="#fcfefc"/>
    <path id="路径_13" data-name="路径 13" d="M80.41,110.87a3.624,3.624,0,0,0-3.62,3.624v19.712a3.62,3.62,0,0,0,7.241,0V114.494a3.624,3.624,0,0,0-3.62-3.624Z" transform="translate(-28.684 -43.108)" fill="#fcfefc"/>
    <path id="路径_14" data-name="路径 14" d="M141.83,110.87a3.624,3.624,0,0,0-3.62,3.624v19.712a3.62,3.62,0,1,0,7.241,0V114.494a3.624,3.624,0,0,0-3.62-3.624Z" transform="translate(-68.132 -43.108)" fill="#fcfefc"/>
    <path id="路径_15" data-name="路径 15" d="M281.128,171.91H260.79V240.7a3.084,3.084,0,0,0,3.08,3.08h20.338V174.99A3.084,3.084,0,0,0,281.128,171.91Z" transform="translate(-146.86 -82.312)" fill="#67b741"/>
    <path id="路径_16" data-name="路径 16" d="M689.5,372.8H626.865a3.62,3.62,0,0,0,0,7.237H689.5a3.62,3.62,0,0,0,0-7.237Z" transform="translate(-379.721 -211.335)" fill="#fcfefc"/>
    <path id="路径_17" data-name="路径 17" d="M419.122,372.8H356.485a3.62,3.62,0,0,0,0,7.237h62.637a3.62,3.62,0,0,0,0-7.237Z" transform="translate(-206.068 -211.335)" fill="#fcfefc"/>
    <path id="路径_18" data-name="路径 18" d="M578.02,353a3.428,3.428,0,0,0-3.62,3.173V425.9a3.652,3.652,0,0,0,7.241,0V356.173A3.428,3.428,0,0,0,578.02,353Z" transform="translate(-348.278 -198.618)" fill="#fcfefc"/>
    <path id="路径_19" data-name="路径 19" d="M750.063,319.845l-4.558,4.558a3.184,3.184,0,0,1-4.493,0l-4.558-4.558a3.184,3.184,0,0,1,0-4.493l4.558-4.558a3.184,3.184,0,0,1,4.493,0l4.558,4.558a3.184,3.184,0,0,1,0,4.493" transform="translate(-451.762 -170.915)" fill="#34b7cd"/>
    <path id="路径_20" data-name="路径 20" d="M361.82,252.82h2.429l6.554,12.009,0-12.009h2.046v15.036h-2.429l-6.389-12.013.039,12.013H361.82Z" transform="translate(-211.747 -134.277)" fill="#34b7cd"/>
    <path id="路径_21" data-name="路径 21" d="M438.13,252.82h2.458l1.41,7.824.8,4.822h.082c.326-1.617.673-3.22,1.02-4.822l1.943-7.824h2.082l1.968,7.824c.358,1.57.669,3.188,1.02,4.822h.1c.247-1.635.512-3.252.755-4.822l1.431-7.824h2.268L452.5,267.845h-2.926l-2.021-8.357c-.265-1.184-.49-2.307-.694-3.452h-.1c-.2,1.145-.447,2.268-.694,3.452l-1.978,8.357h-2.862Z" transform="translate(-260.757 -134.277)" fill="#34b7cd"/>
    <path id="路径_22" data-name="路径 22" d="M490,266.232l1.388-1.635a5.828,5.828,0,0,0,4,1.789c1.817,0,2.837-.859,2.837-2.125,0-1.367-1.02-1.789-2.408-2.411l-2.086-.9c-1.431-.612-3.062-1.757-3.062-3.935,0-2.372,2.086-4.146,4.94-4.146a6.44,6.44,0,0,1,4.558,1.9l-1.227,1.492a4.8,4.8,0,0,0-3.313-1.349c-1.531,0-2.529.737-2.529,1.943,0,1.288,1.206,1.789,2.429,2.268l2.064.876c1.789.758,3.062,1.86,3.062,4.068,0,2.408-2,4.372-5.287,4.372A7.513,7.513,0,0,1,490,266.232" transform="translate(-294.071 -134.309)" fill="#34b7cd"/>
    <rect id="矩形_25" data-name="矩形 25" width="9.562" height="2.629" transform="translate(165.009 118.543)" fill="#67b741"/>
    <path id="路径_23" data-name="路径 23" d="M406.06,276.425v-4.436h6.16V269.61h-8.65v8.919h9.566v-2.1Z" transform="translate(-238.561 -145.06)" fill="#34b7cd"/>
    <path id="路径_24" data-name="路径 24" d="M400.47,317.617c0-4.865,3.023-7.788,7.008-7.788a6,6,0,0,1,4.468,1.885l-1.27,1.5a4.075,4.075,0,0,0-3.105-1.338c-2.8,0-4.651,2.147-4.651,5.66s1.656,5.724,4.762,5.724a3.728,3.728,0,0,0,2.368-.733v-3.506h-2.98v-1.928h5.123v6.472a6.766,6.766,0,0,1-4.758,1.742c-4.025,0-6.944-2.8-6.944-7.688" transform="translate(-236.57 -170.89)" fill="#34b7cd"/>
    <path id="路径_25" data-name="路径 25" d="M446.026,334.221V329.6h6.16V327.12H443.54v9.291H453.1v-2.189Z" transform="translate(-264.232 -181.996)" fill="#34b7cd"/>
    <path id="路径_26" data-name="路径 26" d="M446.026,312.019v4.622l-2.486,2.479V309.83H453.1v2.189Z" transform="translate(-264.232 -170.892)" fill="#34b7cd"/>
    <path id="路径_27" data-name="路径 27" d="M372.824,325.306,367.69,309.83h-2.826l-5.144,15.476h2.486s3.524-10.271,3.967-12.038h.086c.487,1.746,3.989,12.038,3.989,12.038Z" transform="translate(-210.398 -170.892)" fill="#34b7cd"/>
    <path id="路径_28" data-name="路径 28" d="M375.036,338.827l-1.073-1.116a.447.447,0,0,1,0-.612l1.073-1.116a.411.411,0,0,1,.594,0L376.7,337.1a.44.44,0,0,1,0,.612l-1.073,1.116a.419.419,0,0,1-.594,0" transform="translate(-219.468 -187.607)" fill="#67b741"/>
    <path id="路径_29" data-name="路径 29" d="M149.334,284.75V268.723a1.6,1.6,0,0,1,2.257,0l8.292,6.883a1.6,1.6,0,0,1,0,2.261l-8.293,6.883a1.61,1.61,0,0,1-2.261,0" transform="translate(-75.274 -144.191)" fill="#fcfefc"/>
    <path id="路径_30" data-name="路径 30" d="M151.174,269.715a1.531,1.531,0,1,1-1.46-1.478A1.47,1.47,0,0,1,151.174,269.715Z" transform="translate(-74.492 -144.177)" fill="#fcfefc"/>
    <path id="路径_31" data-name="路径 31" d="M151.174,309.244a1.531,1.531,0,1,1-1.46-1.477A1.47,1.47,0,0,1,151.174,309.244Z" transform="translate(-74.492 -169.566)" fill="#fcfefc"/>
    <path id="路径_32" data-name="路径 32" d="M148.14,271.677v14.245h.708v-14.4Z" transform="translate(-74.509 -146.287)" fill="#fcfefc"/>
    <path id="路径_33" data-name="路径 33" d="M643.7,332.152a3.874,3.874,0,0,0-1.6,5.23l41.38,76.131a3.835,3.835,0,1,0,6.8-3.542L648.9,333.837A3.871,3.871,0,0,0,643.7,332.152Z" transform="translate(-391.469 -184.957)" fill="#fcfefc"/>
  </g>
</svg>
